<svg width="395" height="636" viewBox="0 0 395 636" fill="none" xmlns="http://www.w3.org/2000/svg">
<mask id="path-1-inside-1_1_10626" fill="white">
<path d="M185.857 0.911388C133.276 33.7296 89.1559 78.4612 57.0645 131.489C24.9732 184.517 5.81147 244.353 1.12884 306.159C-3.5538 367.964 6.3741 430.004 30.1097 487.262C53.8453 544.519 90.7225 595.388 137.759 635.753L395 336L185.857 0.911388Z"/>
</mask>
<path d="M185.857 0.911388C133.276 33.7296 89.1559 78.4612 57.0645 131.489C24.9732 184.517 5.81147 244.353 1.12884 306.159C-3.5538 367.964 6.3741 430.004 30.1097 487.262C53.8453 544.519 90.7225 595.388 137.759 635.753L395 336L185.857 0.911388Z" fill="#D0D0D0" stroke="white" stroke-width="14" mask="url(#path-1-inside-1_1_10626)"/>
</svg>
