<svg width="550" height="395" viewBox="0 0 550 395" fill="none" xmlns="http://www.w3.org/2000/svg">
<mask id="path-1-inside-1_1_10634" fill="white">
<path d="M549.858 353.917C543.411 292.271 522.547 233.006 488.954 180.917C455.36 128.827 409.98 85.3745 356.482 54.0721C302.984 22.7697 242.871 4.49648 181.003 0.729972C119.135 -3.03654 57.2488 7.80943 0.348862 32.3908L157 395L549.858 353.917Z"/>
</mask>
<path d="M549.858 353.917C543.411 292.271 522.547 233.006 488.954 180.917C455.36 128.827 409.98 85.3745 356.482 54.0721C302.984 22.7697 242.871 4.49648 181.003 0.729972C119.135 -3.03654 57.2488 7.80943 0.348862 32.3908L157 395L549.858 353.917Z" fill="#D0D0D0" stroke="white" stroke-width="14" mask="url(#path-1-inside-1_1_10634)"/>
</svg>
