<svg width="790" height="790" viewBox="0 0 790 790" fill="none" xmlns="http://www.w3.org/2000/svg">
<mask id="path-1-inside-1_1_10625" fill="white">
<path d="M185.857 59.9114C133.276 92.7296 89.1559 137.461 57.0645 190.489C24.9732 243.517 5.81147 303.353 1.12884 365.159C-3.5538 426.964 6.3741 489.004 30.1097 546.262C53.8453 603.519 90.7225 654.388 137.759 694.753L395 395L185.857 59.9114Z"/>
</mask>
<path d="M185.857 59.9114C133.276 92.7296 89.1559 137.461 57.0645 190.489C24.9732 243.517 5.81147 303.353 1.12884 365.159C-3.5538 426.964 6.3741 489.004 30.1097 546.262C53.8453 603.519 90.7225 654.388 137.759 694.753L395 395L185.857 59.9114Z" fill="#D0D0D0" stroke="white" stroke-width="14" mask="url(#path-1-inside-1_1_10625)"/>
</svg>
