<svg viewBox="0 0 1024 1024"><defs><style>.cls-1{fill:#fff;}.cls-2{mask:url(#mask);}.cls-3{fill:#d0d0d0;stroke:#fff;stroke-width:20px;}.cls-4{mask:url(#mask-2);}.cls-5{mask:url(#mask-3);}.cls-6{mask:url(#mask-4);}</style><mask id="mask" x="178.27" y="51.27" width="664.78" height="474.22" maskUnits="userSpaceOnUse"><g id="path-2-inside-1_1_2" data-name="path-2-inside-1 1 2"><path class="cls-1" d="M828.91,193.1a450.07,450.07,0,0,0-636.5,0L510.67,511.35Z"/></g></mask><mask id="mask-2" x="50.59" y="178.95" width="474.22" height="664.79" maskUnits="userSpaceOnUse"><g id="path-1372-inside-2_1_2" data-name="path-1372-inside-2 1 2"><path class="cls-1" d="M192.41,193.1a450.08,450.08,0,0,0,0,636.5L510.67,511.35Z"/></g></mask><mask id="mask-3" x="178.27" y="497.21" width="664.78" height="474.22" maskUnits="userSpaceOnUse"><g id="path-1711-inside-3_1_2" data-name="path-1711-inside-3 1 2"><path class="cls-1" d="M192.41,829.6a450.07,450.07,0,0,0,636.5,0L510.67,511.35Z"/></g></mask><mask id="mask-4" x="496.52" y="177.33" width="474.22" height="664.79" maskUnits="userSpaceOnUse"><g id="path-2016-inside-4_1_2" data-name="path-2016-inside-4 1 2"><path class="cls-1" d="M828.91,828a450.06,450.06,0,0,0,0-636.51L510.67,509.72Z"/></g></mask></defs><title>Artboard 2</title><g class="cls-2"><path class="cls-3" d="M828.91,193.1a450.07,450.07,0,0,0-636.5,0L510.67,511.35Z"/></g><g class="cls-4"><path class="cls-3" d="M192.41,193.1a450.08,450.08,0,0,0,0,636.5L510.67,511.35Z"/></g><g class="cls-5"><path class="cls-3" d="M192.41,829.6a450.07,450.07,0,0,0,636.5,0L510.67,511.35Z"/></g><g class="cls-6"><path class="cls-3" d="M828.91,828a450.06,450.06,0,0,0,0-636.51L510.67,509.72Z"/></g></svg>